<mxfile host="app.diagrams.net" modified="2024-01-13T03:16:57.984Z" agent="Mozilla/5.0 (Macintosh; Intel Mac OS X 10_15_7) AppleWebKit/537.36 (KHTML, like Gecko) Chrome/120.0.0.0 Safari/537.36 Edg/120.0.0.0" etag="YaSZUAP-wTFlRXVh4599" version="22.1.17" type="github">
  <diagram name="第 1 页" id="aBAtC7C85wRrQgK5SBA-">
    <mxGraphModel dx="1018" dy="655" grid="1" gridSize="10" guides="1" tooltips="1" connect="1" arrows="1" fold="1" page="1" pageScale="1" pageWidth="827" pageHeight="1169" math="0" shadow="0">
      <root>
        <mxCell id="0" />
        <mxCell id="1" parent="0" />
        <mxCell id="pVMCiTDg7z46em1MxIxY-14" value="" style="rounded=1;whiteSpace=wrap;html=1;fillStyle=auto;dashed=1;glass=0;perimeterSpacing=0;resizeHeight=0;fillColor=#dae8fc;strokeColor=#6c8ebf;" parent="1" vertex="1">
          <mxGeometry x="210" y="9" width="250" height="230" as="geometry" />
        </mxCell>
        <mxCell id="pVMCiTDg7z46em1MxIxY-2" value="" style="rounded=1;whiteSpace=wrap;html=1;fillColor=#f5f5f5;fontColor=#333333;strokeColor=#666666;" parent="1" vertex="1">
          <mxGeometry x="216" y="17.00000000000002" width="110" height="110" as="geometry" />
        </mxCell>
        <mxCell id="pVMCiTDg7z46em1MxIxY-6" value="" style="strokeWidth=2;html=1;shape=mxgraph.flowchart.document2;whiteSpace=wrap;size=0.25;fillColor=#d5e8d4;strokeColor=#82b366;" parent="1" vertex="1">
          <mxGeometry x="13" y="95" width="100" height="60" as="geometry" />
        </mxCell>
        <mxCell id="pVMCiTDg7z46em1MxIxY-7" value="" style="strokeWidth=2;html=1;shape=mxgraph.flowchart.document2;whiteSpace=wrap;size=0.25;fillColor=#dae8fc;strokeColor=#6c8ebf;" parent="1" vertex="1">
          <mxGeometry x="23" y="105" width="100" height="60" as="geometry" />
        </mxCell>
        <mxCell id="pVMCiTDg7z46em1MxIxY-8" value="&lt;font face=&quot;宋体-简&quot;&gt;文档&lt;/font&gt;&lt;sub style=&quot;&quot;&gt;&lt;font face=&quot;Times New Roman&quot;&gt;1&lt;/font&gt;&lt;/sub&gt;" style="strokeWidth=2;html=1;shape=mxgraph.flowchart.document2;whiteSpace=wrap;size=0.25;fillColor=#fff2cc;strokeColor=#d6b656;" parent="1" vertex="1">
          <mxGeometry x="33" y="115" width="100" height="60" as="geometry" />
        </mxCell>
        <mxCell id="pVMCiTDg7z46em1MxIxY-9" value="&lt;font face=&quot;宋体-简&quot;&gt;句子&lt;/font&gt;&lt;font style=&quot;font-size: 10px;&quot; face=&quot;Times New Roman&quot;&gt;1: [x&lt;sub&gt;1&lt;/sub&gt;] [x&lt;sub&gt;2&lt;/sub&gt;] [x&lt;sub&gt;3&lt;/sub&gt;]&lt;/font&gt;" style="rounded=1;whiteSpace=wrap;html=1;strokeWidth=2;fillColor=#f5f5f5;fontColor=#333333;strokeColor=#666666;" parent="1" vertex="1">
          <mxGeometry x="13" y="216" width="120" height="20" as="geometry" />
        </mxCell>
        <mxCell id="pVMCiTDg7z46em1MxIxY-11" value="&lt;font face=&quot;宋体-简&quot;&gt;句子&lt;/font&gt;&lt;font style=&quot;font-size: 10px;&quot; face=&quot;Times New Roman&quot;&gt;2: [y&lt;sub&gt;1&lt;/sub&gt;] &lt;span style=&quot;background-color: rgb(245, 167, 167);&quot;&gt;[&lt;font style=&quot;font-size: 10px;&quot; color=&quot;#cc0000&quot;&gt;&lt;b&gt;y&lt;sub&gt;2&lt;/sub&gt;&lt;/b&gt;&lt;/font&gt;]&lt;/span&gt; [y&lt;sub&gt;3&lt;/sub&gt;]&lt;/font&gt;" style="rounded=1;whiteSpace=wrap;html=1;strokeWidth=2;fillColor=#f5f5f5;fontColor=#333333;strokeColor=#666666;" parent="1" vertex="1">
          <mxGeometry x="13" y="240" width="120" height="20" as="geometry" />
        </mxCell>
        <mxCell id="pVMCiTDg7z46em1MxIxY-12" value="&lt;font face=&quot;宋体-简&quot;&gt;句子&lt;/font&gt;&lt;font style=&quot;font-size: 10px;&quot; face=&quot;Times New Roman&quot;&gt;&lt;span style=&quot;font-size: 11px;&quot;&gt;3: &lt;/span&gt;&lt;font style=&quot;font-size: 10px;&quot;&gt;[z&lt;sub style=&quot;&quot;&gt;1&lt;/sub&gt;] [z&lt;sub style=&quot;&quot;&gt;2&lt;/sub&gt;]&lt;/font&gt;&lt;/font&gt;&lt;font style=&quot;font-size: 11px;&quot;&gt;&amp;nbsp;&lt;/font&gt;" style="rounded=1;whiteSpace=wrap;html=1;strokeWidth=2;fillColor=#f5f5f5;fontColor=#333333;strokeColor=#666666;" parent="1" vertex="1">
          <mxGeometry x="13" y="264" width="120" height="20" as="geometry" />
        </mxCell>
        <mxCell id="pVMCiTDg7z46em1MxIxY-26" value="" style="edgeStyle=none;orthogonalLoop=1;jettySize=auto;html=1;rounded=0;" parent="1" edge="1">
          <mxGeometry width="100" relative="1" as="geometry">
            <mxPoint x="460" y="315" as="sourcePoint" />
            <mxPoint x="486" y="278" as="targetPoint" />
            <Array as="points" />
          </mxGeometry>
        </mxCell>
        <mxCell id="pVMCiTDg7z46em1MxIxY-93" value="&lt;font face=&quot;宋体-简&quot;&gt;全局表示&lt;/font&gt;" style="edgeLabel;html=1;align=center;verticalAlign=middle;resizable=0;points=[];labelBackgroundColor=none;" parent="pVMCiTDg7z46em1MxIxY-26" vertex="1" connectable="0">
          <mxGeometry x="-0.248" y="2" relative="1" as="geometry">
            <mxPoint x="18" y="14" as="offset" />
          </mxGeometry>
        </mxCell>
        <mxCell id="pVMCiTDg7z46em1MxIxY-27" value="" style="edgeStyle=none;orthogonalLoop=1;jettySize=auto;html=1;rounded=0;" parent="1" edge="1">
          <mxGeometry width="100" relative="1" as="geometry">
            <mxPoint x="460" y="145" as="sourcePoint" />
            <mxPoint x="483" y="183" as="targetPoint" />
            <Array as="points" />
          </mxGeometry>
        </mxCell>
        <mxCell id="pVMCiTDg7z46em1MxIxY-92" value="&lt;font face=&quot;宋体-简&quot;&gt;局部信息&lt;/font&gt;" style="edgeLabel;html=1;align=center;verticalAlign=middle;resizable=0;points=[];labelBackgroundColor=none;" parent="pVMCiTDg7z46em1MxIxY-27" vertex="1" connectable="0">
          <mxGeometry x="-0.2427" y="1" relative="1" as="geometry">
            <mxPoint x="15" y="-17" as="offset" />
          </mxGeometry>
        </mxCell>
        <mxCell id="pVMCiTDg7z46em1MxIxY-28" value="" style="edgeStyle=none;orthogonalLoop=1;jettySize=auto;html=1;rounded=0;" parent="1" edge="1">
          <mxGeometry width="100" relative="1" as="geometry">
            <mxPoint x="136" y="229.9" as="sourcePoint" />
            <mxPoint x="156" y="159" as="targetPoint" />
            <Array as="points" />
          </mxGeometry>
        </mxCell>
        <mxCell id="pVMCiTDg7z46em1MxIxY-31" value="" style="edgeStyle=none;orthogonalLoop=1;jettySize=auto;html=1;rounded=0;" parent="1" edge="1">
          <mxGeometry width="100" relative="1" as="geometry">
            <mxPoint x="136" y="273.1" as="sourcePoint" />
            <mxPoint x="156" y="340" as="targetPoint" />
            <Array as="points" />
          </mxGeometry>
        </mxCell>
        <mxCell id="pVMCiTDg7z46em1MxIxY-33" value="" style="rounded=1;whiteSpace=wrap;html=1;fillColor=#d5e8d4;strokeColor=#82b366;" parent="1" vertex="1">
          <mxGeometry x="341.24" y="120.10000000000002" width="110" height="110" as="geometry" />
        </mxCell>
        <mxCell id="pVMCiTDg7z46em1MxIxY-37" value="" style="edgeStyle=none;orthogonalLoop=1;jettySize=auto;html=1;rounded=0;entryX=-0.024;entryY=0.115;entryDx=0;entryDy=0;entryPerimeter=0;exitX=1;exitY=1;exitDx=0;exitDy=0;" parent="1" source="pVMCiTDg7z46em1MxIxY-2" target="pVMCiTDg7z46em1MxIxY-33" edge="1">
          <mxGeometry width="100" relative="1" as="geometry">
            <mxPoint x="304" y="64.10000000000002" as="sourcePoint" />
            <mxPoint x="334" y="104.10000000000002" as="targetPoint" />
            <Array as="points" />
          </mxGeometry>
        </mxCell>
        <mxCell id="pVMCiTDg7z46em1MxIxY-99" value="&lt;font face=&quot;宋体-简&quot;&gt;显式关系增强&lt;/font&gt;" style="edgeLabel;html=1;align=center;verticalAlign=middle;resizable=0;points=[];labelBackgroundColor=#dae8fc;" parent="pVMCiTDg7z46em1MxIxY-37" vertex="1" connectable="0">
          <mxGeometry x="-0.4236" relative="1" as="geometry">
            <mxPoint x="-24" y="13" as="offset" />
          </mxGeometry>
        </mxCell>
        <mxCell id="pVMCiTDg7z46em1MxIxY-44" value="" style="ellipse;whiteSpace=wrap;html=1;aspect=fixed;fillColor=#f8cecc;strokeColor=#b85450;" parent="1" vertex="1">
          <mxGeometry x="251" y="20.00000000000002" width="28" height="28" as="geometry" />
        </mxCell>
        <mxCell id="pVMCiTDg7z46em1MxIxY-45" value="" style="ellipse;whiteSpace=wrap;html=1;aspect=fixed;fillColor=#1ba1e2;fontColor=#ffffff;strokeColor=#006EAF;" parent="1" vertex="1">
          <mxGeometry x="294" y="60.00000000000003" width="28" height="28" as="geometry" />
        </mxCell>
        <mxCell id="pVMCiTDg7z46em1MxIxY-46" value="" style="ellipse;whiteSpace=wrap;html=1;aspect=fixed;fillColor=#60a917;fontColor=#ffffff;strokeColor=#2D7600;" parent="1" vertex="1">
          <mxGeometry x="222" y="94.00000000000003" width="28" height="28" as="geometry" />
        </mxCell>
        <mxCell id="pVMCiTDg7z46em1MxIxY-48" value="" style="endArrow=none;html=1;rounded=0;entryX=0.5;entryY=1;entryDx=0;entryDy=0;exitX=1;exitY=0;exitDx=0;exitDy=0;" parent="1" source="pVMCiTDg7z46em1MxIxY-46" target="pVMCiTDg7z46em1MxIxY-44" edge="1">
          <mxGeometry width="50" height="50" relative="1" as="geometry">
            <mxPoint x="228" y="55.00000000000003" as="sourcePoint" />
            <mxPoint x="337" y="35.00000000000003" as="targetPoint" />
          </mxGeometry>
        </mxCell>
        <mxCell id="ASljsbczPLoBp7QqAxyb-75" value="&lt;font face=&quot;宋体-简&quot;&gt;操作符&lt;/font&gt;" style="edgeLabel;html=1;align=center;verticalAlign=middle;resizable=0;points=[];labelBackgroundColor=none;fontSize=10;" parent="pVMCiTDg7z46em1MxIxY-48" vertex="1" connectable="0">
          <mxGeometry x="0.122" relative="1" as="geometry">
            <mxPoint x="-19" y="-14" as="offset" />
          </mxGeometry>
        </mxCell>
        <mxCell id="pVMCiTDg7z46em1MxIxY-49" value="" style="endArrow=none;html=1;rounded=0;entryX=0;entryY=1;entryDx=0;entryDy=0;exitX=1;exitY=0.5;exitDx=0;exitDy=0;dashed=1;dashPattern=8 8;" parent="1" source="pVMCiTDg7z46em1MxIxY-46" target="pVMCiTDg7z46em1MxIxY-45" edge="1">
          <mxGeometry width="50" height="50" relative="1" as="geometry">
            <mxPoint x="244" y="70.00000000000003" as="sourcePoint" />
            <mxPoint x="254" y="45.00000000000003" as="targetPoint" />
          </mxGeometry>
        </mxCell>
        <mxCell id="ASljsbczPLoBp7QqAxyb-78" value="&lt;font style=&quot;font-size: 10px;&quot;&gt;&lt;font face=&quot;宋体-简&quot;&gt;时间&lt;br style=&quot;border-color: var(--border-color); font-size: 10px;&quot;&gt;修饰词&lt;br style=&quot;border-color: var(--border-color); font-size: 10px;&quot;&gt;介词&lt;/font&gt;&lt;br style=&quot;font-size: 10px;&quot;&gt;&lt;/font&gt;" style="edgeLabel;html=1;align=center;verticalAlign=middle;resizable=0;points=[];labelBackgroundColor=none;fontSize=10;" parent="pVMCiTDg7z46em1MxIxY-49" vertex="1" connectable="0">
          <mxGeometry x="0.202" y="1" relative="1" as="geometry">
            <mxPoint x="14" y="15" as="offset" />
          </mxGeometry>
        </mxCell>
        <mxCell id="pVMCiTDg7z46em1MxIxY-50" value="" style="endArrow=none;html=1;rounded=0;entryX=0;entryY=0;entryDx=0;entryDy=0;exitX=1;exitY=1;exitDx=0;exitDy=0;" parent="1" source="pVMCiTDg7z46em1MxIxY-44" target="pVMCiTDg7z46em1MxIxY-45" edge="1">
          <mxGeometry width="50" height="50" relative="1" as="geometry">
            <mxPoint x="254" y="80.00000000000003" as="sourcePoint" />
            <mxPoint x="264" y="55.00000000000003" as="targetPoint" />
          </mxGeometry>
        </mxCell>
        <mxCell id="ASljsbczPLoBp7QqAxyb-77" value="&lt;font face=&quot;宋体-简&quot;&gt;核心角色&lt;/font&gt;" style="edgeLabel;html=1;align=center;verticalAlign=middle;resizable=0;points=[];labelBackgroundColor=none;fontSize=10;" parent="pVMCiTDg7z46em1MxIxY-50" vertex="1" connectable="0">
          <mxGeometry x="-0.2172" y="1" relative="1" as="geometry">
            <mxPoint x="18" y="-6" as="offset" />
          </mxGeometry>
        </mxCell>
        <mxCell id="pVMCiTDg7z46em1MxIxY-102" value="" style="edgeStyle=orthogonalEdgeStyle;rounded=0;orthogonalLoop=1;jettySize=auto;html=1;" parent="1" source="pVMCiTDg7z46em1MxIxY-96" target="pVMCiTDg7z46em1MxIxY-101" edge="1">
          <mxGeometry relative="1" as="geometry" />
        </mxCell>
        <mxCell id="pVMCiTDg7z46em1MxIxY-96" value="&lt;font face=&quot;Times New Roman&quot; style=&quot;font-size: 10px;&quot;&gt;[x&lt;sub style=&quot;border-color: var(--border-color); color: rgb(51, 51, 51);&quot;&gt;1&lt;/sub&gt;&lt;span style=&quot;color: rgb(51, 51, 51);&quot;&gt;] [x&lt;/span&gt;&lt;sub style=&quot;border-color: var(--border-color); color: rgb(51, 51, 51);&quot;&gt;2&lt;/sub&gt;&lt;span style=&quot;color: rgb(51, 51, 51);&quot;&gt;] [x&lt;/span&gt;&lt;sub style=&quot;border-color: var(--border-color); color: rgb(51, 51, 51);&quot;&gt;3&lt;/sub&gt;&lt;span style=&quot;color: rgb(51, 51, 51);&quot;&gt;]&amp;nbsp;&lt;/span&gt;[y&lt;sub style=&quot;border-color: var(--border-color); color: rgb(51, 51, 51);&quot;&gt;1&lt;/sub&gt;]&amp;nbsp;&lt;span style=&quot;background-color: rgb(248, 206, 204);&quot;&gt;&lt;span style=&quot;color: rgb(51, 51, 51);&quot;&gt;[&lt;/span&gt;&lt;font style=&quot;border-color: var(--border-color); font-size: 10px;&quot; color=&quot;#cc0000&quot;&gt;&lt;b style=&quot;border-color: var(--border-color);&quot;&gt;y&lt;sub style=&quot;border-color: var(--border-color);&quot;&gt;2&lt;/sub&gt;&lt;/b&gt;&lt;/font&gt;&lt;span style=&quot;color: rgb(51, 51, 51);&quot;&gt;]&lt;/span&gt;&lt;/span&gt;&lt;span style=&quot;color: rgb(51, 51, 51);&quot;&gt;&amp;nbsp;[y&lt;/span&gt;&lt;sub style=&quot;border-color: var(--border-color); color: rgb(51, 51, 51);&quot;&gt;3&lt;/sub&gt;&lt;span style=&quot;color: rgb(51, 51, 51);&quot;&gt;]&lt;/span&gt;&amp;nbsp;[z&lt;sub style=&quot;border-color: var(--border-color); color: rgb(51, 51, 51);&quot;&gt;1&lt;/sub&gt;&lt;span style=&quot;color: rgb(51, 51, 51);&quot;&gt;] [z&lt;/span&gt;&lt;sub style=&quot;border-color: var(--border-color); color: rgb(51, 51, 51);&quot;&gt;2&lt;/sub&gt;&lt;span style=&quot;color: rgb(51, 51, 51);&quot;&gt;]&lt;/span&gt;&lt;/font&gt;" style="rounded=1;whiteSpace=wrap;html=1;verticalAlign=top;" parent="1" vertex="1">
          <mxGeometry x="652.74" y="212.00000000000003" width="150.76" height="30" as="geometry" />
        </mxCell>
        <mxCell id="pVMCiTDg7z46em1MxIxY-104" value="" style="edgeStyle=orthogonalEdgeStyle;rounded=0;orthogonalLoop=1;jettySize=auto;html=1;" parent="1" source="pVMCiTDg7z46em1MxIxY-101" target="pVMCiTDg7z46em1MxIxY-103" edge="1">
          <mxGeometry relative="1" as="geometry" />
        </mxCell>
        <mxCell id="pVMCiTDg7z46em1MxIxY-101" value="&lt;font face=&quot;宋体-简&quot;&gt;边界损失模块&lt;/font&gt;" style="whiteSpace=wrap;html=1;verticalAlign=top;rounded=1;" parent="1" vertex="1">
          <mxGeometry x="651.74" y="261.25" width="151.76" height="37" as="geometry" />
        </mxCell>
        <mxCell id="pVMCiTDg7z46em1MxIxY-103" value="&lt;font face=&quot;宋体-简&quot;&gt;识别以及分类模块&lt;/font&gt;" style="whiteSpace=wrap;html=1;verticalAlign=top;rounded=1;" parent="1" vertex="1">
          <mxGeometry x="651.74" y="317.5" width="151.76" height="37.5" as="geometry" />
        </mxCell>
        <mxCell id="L6vsH4I87ayAv4RI-xaD-26" value="" style="rounded=0;whiteSpace=wrap;html=1;fillColor=#fcfcfc;dashed=1;strokeColor=default;glass=0;" parent="1" vertex="1">
          <mxGeometry x="568" y="14" width="236.74" height="71" as="geometry" />
        </mxCell>
        <mxCell id="L6vsH4I87ayAv4RI-xaD-27" value="" style="ellipse;whiteSpace=wrap;html=1;aspect=fixed;fillColor=#f8cecc;strokeColor=#b85450;" parent="1" vertex="1">
          <mxGeometry x="593.74" y="38" width="18" height="18" as="geometry" />
        </mxCell>
        <mxCell id="L6vsH4I87ayAv4RI-xaD-30" value="&lt;font face=&quot;宋体-简&quot;&gt;触发词表示&lt;/font&gt;" style="text;html=1;strokeColor=none;fillColor=none;align=center;verticalAlign=middle;whiteSpace=wrap;rounded=0;" parent="1" vertex="1">
          <mxGeometry x="719.74" y="32" width="71" height="30" as="geometry" />
        </mxCell>
        <mxCell id="L6vsH4I87ayAv4RI-xaD-42" value="&lt;span style=&quot;background-color: rgb(248, 206, 204);&quot;&gt;&lt;font face=&quot;Times New Roman&quot;&gt;[&lt;font style=&quot;border-color: var(--border-color);&quot; color=&quot;#cc0000&quot;&gt;&lt;b style=&quot;border-color: var(--border-color);&quot;&gt;y&lt;sub style=&quot;border-color: var(--border-color);&quot;&gt;2&lt;/sub&gt;&lt;/b&gt;&lt;/font&gt;&lt;span style=&quot;color: rgb(51, 51, 51);&quot;&gt;]&lt;/span&gt;&lt;/font&gt;&lt;/span&gt;" style="text;html=1;strokeColor=none;fillColor=none;align=center;verticalAlign=middle;whiteSpace=wrap;rounded=0;" parent="1" vertex="1">
          <mxGeometry x="588.24" y="14" width="31" height="30" as="geometry" />
        </mxCell>
        <mxCell id="L6vsH4I87ayAv4RI-xaD-43" value="&lt;font face=&quot;宋体-简&quot;&gt;触发词&lt;/font&gt;" style="text;html=1;strokeColor=none;fillColor=none;align=center;verticalAlign=middle;whiteSpace=wrap;rounded=0;" parent="1" vertex="1">
          <mxGeometry x="708.74" y="13" width="71" height="30" as="geometry" />
        </mxCell>
        <mxCell id="L6vsH4I87ayAv4RI-xaD-46" value="" style="ellipse;whiteSpace=wrap;html=1;aspect=fixed;fillColor=#60a917;fontColor=#ffffff;strokeColor=#2D7600;" parent="1" vertex="1">
          <mxGeometry x="593.74" y="59" width="18" height="18" as="geometry" />
        </mxCell>
        <mxCell id="L6vsH4I87ayAv4RI-xaD-47" value="" style="ellipse;whiteSpace=wrap;html=1;aspect=fixed;fillColor=#fa6800;fontColor=#000000;strokeColor=#C73500;" parent="1" vertex="1">
          <mxGeometry x="616.74" y="59" width="18" height="18" as="geometry" />
        </mxCell>
        <mxCell id="L6vsH4I87ayAv4RI-xaD-48" value="" style="ellipse;whiteSpace=wrap;html=1;aspect=fixed;fillColor=#1ba1e2;fontColor=#ffffff;strokeColor=#006EAF;" parent="1" vertex="1">
          <mxGeometry x="639.74" y="59" width="18" height="18" as="geometry" />
        </mxCell>
        <mxCell id="L6vsH4I87ayAv4RI-xaD-49" value="&lt;font face=&quot;宋体-简&quot;&gt;文本跨度表示&lt;/font&gt;" style="text;html=1;strokeColor=none;fillColor=none;align=center;verticalAlign=middle;whiteSpace=wrap;rounded=0;" parent="1" vertex="1">
          <mxGeometry x="719.74" y="56" width="81" height="24" as="geometry" />
        </mxCell>
        <mxCell id="L6vsH4I87ayAv4RI-xaD-54" value="&lt;font face=&quot;宋体-简&quot; style=&quot;font-size: 15px;&quot;&gt;&lt;b&gt;局部图关系增强&lt;/b&gt;&lt;/font&gt;" style="text;html=1;align=center;verticalAlign=middle;resizable=0;points=[];autosize=1;strokeColor=none;fillColor=none;" parent="1" vertex="1">
          <mxGeometry x="323.24" y="25" width="130" height="30" as="geometry" />
        </mxCell>
        <mxCell id="L6vsH4I87ayAv4RI-xaD-59" value="" style="rounded=1;whiteSpace=wrap;html=1;fillColor=#fff2cc;strokeColor=#d6b656;" parent="1" vertex="1">
          <mxGeometry x="484.74" y="168" width="146.26" height="119" as="geometry" />
        </mxCell>
        <mxCell id="L6vsH4I87ayAv4RI-xaD-80" value="" style="endArrow=classic;html=1;rounded=0;strokeColor=#ff0000;exitX=0;exitY=0.5;exitDx=0;exitDy=0;" parent="1" source="L6vsH4I87ayAv4RI-xaD-59" edge="1">
          <mxGeometry width="50" height="50" relative="1" as="geometry">
            <mxPoint x="486.74" y="227.80999999999995" as="sourcePoint" />
            <mxPoint x="536.74" y="228.10000000000002" as="targetPoint" />
          </mxGeometry>
        </mxCell>
        <mxCell id="L6vsH4I87ayAv4RI-xaD-81" value="&lt;font face=&quot;Times New Roman&quot; color=&quot;#ff0000&quot;&gt;V&lt;sub&gt;local&lt;/sub&gt;&lt;/font&gt;" style="edgeLabel;html=1;align=center;verticalAlign=middle;resizable=0;points=[];labelBackgroundColor=none;" parent="L6vsH4I87ayAv4RI-xaD-80" vertex="1" connectable="0">
          <mxGeometry x="-0.3786" y="1" relative="1" as="geometry">
            <mxPoint x="4" y="-10" as="offset" />
          </mxGeometry>
        </mxCell>
        <mxCell id="L6vsH4I87ayAv4RI-xaD-82" value="" style="endArrow=classic;html=1;rounded=0;strokeColor=#0000ff;exitX=0.014;exitY=0.897;exitDx=0;exitDy=0;exitPerimeter=0;" parent="1" source="L6vsH4I87ayAv4RI-xaD-59" edge="1">
          <mxGeometry width="50" height="50" relative="1" as="geometry">
            <mxPoint x="496" y="275" as="sourcePoint" />
            <mxPoint x="536.74" y="275.1" as="targetPoint" />
          </mxGeometry>
        </mxCell>
        <mxCell id="L6vsH4I87ayAv4RI-xaD-83" value="&lt;font face=&quot;Times New Roman&quot; color=&quot;#0000ff&quot;&gt;Q&lt;sub&gt;global&lt;/sub&gt;&lt;/font&gt;" style="edgeLabel;html=1;align=center;verticalAlign=middle;resizable=0;points=[];labelBackgroundColor=none;" parent="L6vsH4I87ayAv4RI-xaD-82" vertex="1" connectable="0">
          <mxGeometry x="-0.3214" y="1" relative="1" as="geometry">
            <mxPoint x="4" y="-11" as="offset" />
          </mxGeometry>
        </mxCell>
        <mxCell id="L6vsH4I87ayAv4RI-xaD-84" value="" style="endArrow=classic;html=1;rounded=0;edgeStyle=orthogonalEdgeStyle;exitX=0.008;exitY=0.091;exitDx=0;exitDy=0;exitPerimeter=0;" parent="1" source="L6vsH4I87ayAv4RI-xaD-59" edge="1">
          <mxGeometry width="50" height="50" relative="1" as="geometry">
            <mxPoint x="495.74" y="179.1" as="sourcePoint" />
            <mxPoint x="585.74" y="222.1" as="targetPoint" />
            <Array as="points">
              <mxPoint x="575" y="179" />
              <mxPoint x="575" y="222" />
            </Array>
          </mxGeometry>
        </mxCell>
        <mxCell id="L6vsH4I87ayAv4RI-xaD-93" value="&lt;font face=&quot;宋体-简&quot;&gt;局部表示&lt;/font&gt;" style="edgeLabel;html=1;align=center;verticalAlign=middle;resizable=0;points=[];labelBackgroundColor=none;" parent="L6vsH4I87ayAv4RI-xaD-84" vertex="1" connectable="0">
          <mxGeometry x="-0.4284" relative="1" as="geometry">
            <mxPoint x="-13" y="8" as="offset" />
          </mxGeometry>
        </mxCell>
        <mxCell id="L6vsH4I87ayAv4RI-xaD-86" value="" style="shape=sumEllipse;perimeter=ellipsePerimeter;whiteSpace=wrap;html=1;backgroundOutline=1;" parent="1" vertex="1">
          <mxGeometry x="537.74" y="237.85000000000002" width="28.5" height="28.5" as="geometry" />
        </mxCell>
        <mxCell id="L6vsH4I87ayAv4RI-xaD-87" value="" style="shape=orEllipse;perimeter=ellipsePerimeter;whiteSpace=wrap;html=1;backgroundOutline=1;" parent="1" vertex="1">
          <mxGeometry x="586.74" y="206.85000000000002" width="41.15" height="41.15" as="geometry" />
        </mxCell>
        <mxCell id="L6vsH4I87ayAv4RI-xaD-88" value="" style="endArrow=classic;html=1;rounded=0;strokeColor=#00ff00;exitX=0.001;exitY=0.696;exitDx=0;exitDy=0;exitPerimeter=0;" parent="1" source="L6vsH4I87ayAv4RI-xaD-59" edge="1">
          <mxGeometry width="50" height="50" relative="1" as="geometry">
            <mxPoint x="496" y="251" as="sourcePoint" />
            <mxPoint x="536.74" y="251.39" as="targetPoint" />
          </mxGeometry>
        </mxCell>
        <mxCell id="L6vsH4I87ayAv4RI-xaD-89" value="&lt;font face=&quot;Times New Roman&quot; color=&quot;#00ff00&quot;&gt;K&lt;sub style=&quot;&quot;&gt;local&lt;/sub&gt;&lt;/font&gt;" style="edgeLabel;html=1;align=center;verticalAlign=middle;resizable=0;points=[];labelBackgroundColor=none;" parent="L6vsH4I87ayAv4RI-xaD-88" vertex="1" connectable="0">
          <mxGeometry x="-0.3786" y="1" relative="1" as="geometry">
            <mxPoint x="4" y="-10" as="offset" />
          </mxGeometry>
        </mxCell>
        <mxCell id="L6vsH4I87ayAv4RI-xaD-90" value="&lt;font face=&quot;宋体-简&quot;&gt;注意力机制&lt;/font&gt;" style="text;html=1;align=center;verticalAlign=middle;resizable=0;points=[];autosize=1;strokeColor=none;fillColor=none;" parent="1" vertex="1">
          <mxGeometry x="524.74" y="258" width="80" height="30" as="geometry" />
        </mxCell>
        <mxCell id="L6vsH4I87ayAv4RI-xaD-91" style="edgeStyle=orthogonalEdgeStyle;rounded=0;orthogonalLoop=1;jettySize=auto;html=1;exitX=1;exitY=0.5;exitDx=0;exitDy=0;" parent="1" source="L6vsH4I87ayAv4RI-xaD-86" edge="1">
          <mxGeometry relative="1" as="geometry">
            <mxPoint x="557.399939819834" y="253.0014141414141" as="sourcePoint" />
            <mxPoint x="586" y="232" as="targetPoint" />
            <Array as="points">
              <mxPoint x="575" y="252" />
              <mxPoint x="575" y="232" />
            </Array>
          </mxGeometry>
        </mxCell>
        <mxCell id="L6vsH4I87ayAv4RI-xaD-92" value="" style="shape=flexArrow;endArrow=classic;html=1;rounded=0;endWidth=6.857142857142857;endSize=3.6685714285714286;" parent="1" edge="1">
          <mxGeometry width="50" height="50" relative="1" as="geometry">
            <mxPoint x="632" y="227.38000000000005" as="sourcePoint" />
            <mxPoint x="652" y="227.38000000000005" as="targetPoint" />
          </mxGeometry>
        </mxCell>
        <mxCell id="oEz1iu90TZtMotsWFyNv-2" value="&lt;font face=&quot;宋体-简&quot;&gt;融合&lt;/font&gt;" style="text;html=1;align=center;verticalAlign=middle;resizable=0;points=[];autosize=1;strokeColor=none;fillColor=none;" parent="1" vertex="1">
          <mxGeometry x="580.74" y="181" width="50" height="30" as="geometry" />
        </mxCell>
        <mxCell id="ASljsbczPLoBp7QqAxyb-6" value="" style="endArrow=classic;html=1;rounded=0;" parent="1" edge="1">
          <mxGeometry width="50" height="50" relative="1" as="geometry">
            <mxPoint x="72.67000000000002" y="181" as="sourcePoint" />
            <mxPoint x="72.67000000000002" y="212" as="targetPoint" />
          </mxGeometry>
        </mxCell>
        <mxCell id="ASljsbczPLoBp7QqAxyb-13" value="" style="ellipse;whiteSpace=wrap;html=1;aspect=fixed;fillColor=#f8cecc;strokeColor=#b85450;" parent="1" vertex="1">
          <mxGeometry x="377" y="123.00000000000003" width="28" height="28" as="geometry" />
        </mxCell>
        <mxCell id="ASljsbczPLoBp7QqAxyb-14" value="" style="ellipse;whiteSpace=wrap;html=1;aspect=fixed;fillColor=#1ba1e2;fontColor=#ffffff;strokeColor=#006EAF;" parent="1" vertex="1">
          <mxGeometry x="420" y="163.00000000000003" width="28" height="28" as="geometry" />
        </mxCell>
        <mxCell id="ASljsbczPLoBp7QqAxyb-15" value="" style="ellipse;whiteSpace=wrap;html=1;aspect=fixed;fillColor=#60a917;fontColor=#ffffff;strokeColor=#2D7600;" parent="1" vertex="1">
          <mxGeometry x="348" y="197.00000000000003" width="28" height="28" as="geometry" />
        </mxCell>
        <mxCell id="ASljsbczPLoBp7QqAxyb-16" value="" style="endArrow=none;html=1;rounded=0;entryX=0.5;entryY=1;entryDx=0;entryDy=0;exitX=1;exitY=0;exitDx=0;exitDy=0;" parent="1" source="ASljsbczPLoBp7QqAxyb-15" target="ASljsbczPLoBp7QqAxyb-13" edge="1">
          <mxGeometry width="50" height="50" relative="1" as="geometry">
            <mxPoint x="354" y="158.00000000000003" as="sourcePoint" />
            <mxPoint x="463" y="138.00000000000003" as="targetPoint" />
          </mxGeometry>
        </mxCell>
        <mxCell id="ASljsbczPLoBp7QqAxyb-79" value="&lt;font face=&quot;宋体-简&quot;&gt;操作符&lt;/font&gt;" style="edgeLabel;html=1;align=center;verticalAlign=middle;resizable=0;points=[];labelBackgroundColor=none;fontSize=10;" parent="ASljsbczPLoBp7QqAxyb-16" vertex="1" connectable="0">
          <mxGeometry x="0.2236" relative="1" as="geometry">
            <mxPoint x="-22" y="-7" as="offset" />
          </mxGeometry>
        </mxCell>
        <mxCell id="ASljsbczPLoBp7QqAxyb-17" value="" style="endArrow=none;html=1;rounded=0;entryX=0;entryY=1;entryDx=0;entryDy=0;exitX=1;exitY=0.5;exitDx=0;exitDy=0;dashed=1;dashPattern=8 8;" parent="1" source="ASljsbczPLoBp7QqAxyb-15" target="ASljsbczPLoBp7QqAxyb-14" edge="1">
          <mxGeometry width="50" height="50" relative="1" as="geometry">
            <mxPoint x="370" y="173.00000000000003" as="sourcePoint" />
            <mxPoint x="380" y="148.00000000000003" as="targetPoint" />
          </mxGeometry>
        </mxCell>
        <mxCell id="BfeE-0904GcRxi97lmfi-1" value="❌" style="edgeLabel;html=1;align=center;verticalAlign=middle;resizable=0;points=[];labelBackgroundColor=none;fontSize=16;" parent="ASljsbczPLoBp7QqAxyb-17" vertex="1" connectable="0">
          <mxGeometry x="0.33" relative="1" as="geometry">
            <mxPoint x="-3" y="2" as="offset" />
          </mxGeometry>
        </mxCell>
        <mxCell id="ASljsbczPLoBp7QqAxyb-18" value="" style="endArrow=none;html=1;rounded=0;entryX=0;entryY=0;entryDx=0;entryDy=0;exitX=1;exitY=1;exitDx=0;exitDy=0;" parent="1" source="ASljsbczPLoBp7QqAxyb-13" target="ASljsbczPLoBp7QqAxyb-14" edge="1">
          <mxGeometry width="50" height="50" relative="1" as="geometry">
            <mxPoint x="380" y="183.00000000000003" as="sourcePoint" />
            <mxPoint x="390" y="158.00000000000003" as="targetPoint" />
          </mxGeometry>
        </mxCell>
        <mxCell id="ASljsbczPLoBp7QqAxyb-81" value="&lt;font face=&quot;宋体-简&quot;&gt;核心角色&lt;/font&gt;" style="edgeLabel;html=1;align=center;verticalAlign=middle;resizable=0;points=[];labelBackgroundColor=none;fontSize=10;" parent="ASljsbczPLoBp7QqAxyb-18" vertex="1" connectable="0">
          <mxGeometry x="-0.0683" y="1" relative="1" as="geometry">
            <mxPoint x="15" y="-8" as="offset" />
          </mxGeometry>
        </mxCell>
        <mxCell id="ASljsbczPLoBp7QqAxyb-19" value="" style="rounded=1;whiteSpace=wrap;html=1;fillStyle=auto;dashed=1;glass=0;perimeterSpacing=0;resizeHeight=0;fillColor=#ffe6cc;strokeColor=#d79b00;" parent="1" vertex="1">
          <mxGeometry x="210" y="242.1" width="250" height="230" as="geometry" />
        </mxCell>
        <mxCell id="ASljsbczPLoBp7QqAxyb-20" value="" style="rounded=1;whiteSpace=wrap;html=1;fillColor=#f5f5f5;fontColor=#333333;strokeColor=#666666;" parent="1" vertex="1">
          <mxGeometry x="217" y="250.10000000000002" width="110" height="110" as="geometry" />
        </mxCell>
        <mxCell id="ASljsbczPLoBp7QqAxyb-21" value="" style="rounded=1;whiteSpace=wrap;html=1;fillColor=#d5e8d4;strokeColor=#82b366;" parent="1" vertex="1">
          <mxGeometry x="340.24" y="354.20000000000005" width="110" height="110" as="geometry" />
        </mxCell>
        <mxCell id="ASljsbczPLoBp7QqAxyb-22" value="" style="edgeStyle=none;orthogonalLoop=1;jettySize=auto;html=1;rounded=0;entryX=-0.024;entryY=0.115;entryDx=0;entryDy=0;entryPerimeter=0;exitX=1;exitY=1;exitDx=0;exitDy=0;" parent="1" source="ASljsbczPLoBp7QqAxyb-20" target="ASljsbczPLoBp7QqAxyb-21" edge="1">
          <mxGeometry width="100" relative="1" as="geometry">
            <mxPoint x="303" y="297.20000000000005" as="sourcePoint" />
            <mxPoint x="333" y="337.20000000000005" as="targetPoint" />
            <Array as="points" />
          </mxGeometry>
        </mxCell>
        <mxCell id="ASljsbczPLoBp7QqAxyb-23" value="&lt;font face=&quot;宋体-简&quot;&gt;显式关系增强&lt;/font&gt;" style="edgeLabel;html=1;align=center;verticalAlign=middle;resizable=0;points=[];labelBackgroundColor=#ffe6cc;" parent="ASljsbczPLoBp7QqAxyb-22" vertex="1" connectable="0">
          <mxGeometry x="-0.4236" relative="1" as="geometry">
            <mxPoint x="-26" y="13" as="offset" />
          </mxGeometry>
        </mxCell>
        <mxCell id="ASljsbczPLoBp7QqAxyb-24" value="" style="ellipse;whiteSpace=wrap;html=1;aspect=fixed;fillColor=#f8cecc;strokeColor=#b85450;" parent="1" vertex="1">
          <mxGeometry x="265" y="251.10000000000002" width="28" height="28" as="geometry" />
        </mxCell>
        <mxCell id="ASljsbczPLoBp7QqAxyb-25" value="" style="ellipse;whiteSpace=wrap;html=1;aspect=fixed;fillColor=#1ba1e2;fontColor=#ffffff;strokeColor=#006EAF;" parent="1" vertex="1">
          <mxGeometry x="297" y="281.1" width="28" height="28" as="geometry" />
        </mxCell>
        <mxCell id="ASljsbczPLoBp7QqAxyb-26" value="" style="ellipse;whiteSpace=wrap;html=1;aspect=fixed;fillColor=#60a917;fontColor=#ffffff;strokeColor=#2D7600;" parent="1" vertex="1">
          <mxGeometry x="219" y="285.1" width="28" height="28" as="geometry" />
        </mxCell>
        <mxCell id="ASljsbczPLoBp7QqAxyb-27" value="" style="endArrow=none;html=1;rounded=0;exitX=1;exitY=0;exitDx=0;exitDy=0;entryX=0.262;entryY=0.93;entryDx=0;entryDy=0;entryPerimeter=0;" parent="1" source="ASljsbczPLoBp7QqAxyb-26" target="ASljsbczPLoBp7QqAxyb-24" edge="1">
          <mxGeometry width="50" height="50" relative="1" as="geometry">
            <mxPoint x="229" y="288.1" as="sourcePoint" />
            <mxPoint x="253" y="279.1" as="targetPoint" />
          </mxGeometry>
        </mxCell>
        <mxCell id="ASljsbczPLoBp7QqAxyb-51" value="&lt;font face=&quot;宋体-简&quot;&gt;操作符&lt;/font&gt;" style="edgeLabel;html=1;align=center;verticalAlign=middle;resizable=0;points=[];labelBackgroundColor=none;fontSize=10;" parent="ASljsbczPLoBp7QqAxyb-27" vertex="1" connectable="0">
          <mxGeometry x="-0.0863" relative="1" as="geometry">
            <mxPoint x="-15" y="-11" as="offset" />
          </mxGeometry>
        </mxCell>
        <mxCell id="ASljsbczPLoBp7QqAxyb-29" value="" style="endArrow=none;html=1;rounded=0;entryX=0;entryY=0;entryDx=0;entryDy=0;exitX=1;exitY=1;exitDx=0;exitDy=0;" parent="1" source="ASljsbczPLoBp7QqAxyb-24" target="ASljsbczPLoBp7QqAxyb-25" edge="1">
          <mxGeometry width="50" height="50" relative="1" as="geometry">
            <mxPoint x="255" y="313.1" as="sourcePoint" />
            <mxPoint x="265" y="288.1" as="targetPoint" />
          </mxGeometry>
        </mxCell>
        <mxCell id="ASljsbczPLoBp7QqAxyb-49" value="&lt;font face=&quot;宋体-简&quot;&gt;核心角色&lt;/font&gt;" style="edgeLabel;html=1;align=center;verticalAlign=middle;resizable=0;points=[];labelBackgroundColor=none;fontSize=8;" parent="ASljsbczPLoBp7QqAxyb-29" vertex="1" connectable="0">
          <mxGeometry x="-0.076" relative="1" as="geometry">
            <mxPoint x="13" y="-6" as="offset" />
          </mxGeometry>
        </mxCell>
        <mxCell id="ASljsbczPLoBp7QqAxyb-37" value="" style="ellipse;whiteSpace=wrap;html=1;aspect=fixed;fillColor=#fa6800;fontColor=#000000;strokeColor=#C73500;" parent="1" vertex="1">
          <mxGeometry x="234" y="328.1" width="28" height="28" as="geometry" />
        </mxCell>
        <mxCell id="ASljsbczPLoBp7QqAxyb-39" value="" style="endArrow=none;html=1;rounded=0;entryX=0.552;entryY=1.001;entryDx=0;entryDy=0;entryPerimeter=0;exitX=0.532;exitY=-0.029;exitDx=0;exitDy=0;exitPerimeter=0;" parent="1" source="ASljsbczPLoBp7QqAxyb-37" target="ASljsbczPLoBp7QqAxyb-24" edge="1">
          <mxGeometry width="50" height="50" relative="1" as="geometry">
            <mxPoint x="283" y="319.1" as="sourcePoint" />
            <mxPoint x="333" y="269.1" as="targetPoint" />
          </mxGeometry>
        </mxCell>
        <mxCell id="ASljsbczPLoBp7QqAxyb-52" value="&lt;font face=&quot;宋体-简&quot;&gt;核心角色&lt;/font&gt;" style="edgeLabel;html=1;align=center;verticalAlign=middle;resizable=0;points=[];labelBackgroundColor=#f5f5f5;fontSize=8;" parent="ASljsbczPLoBp7QqAxyb-39" vertex="1" connectable="0">
          <mxGeometry x="0.1382" relative="1" as="geometry">
            <mxPoint x="-3" y="7" as="offset" />
          </mxGeometry>
        </mxCell>
        <mxCell id="ASljsbczPLoBp7QqAxyb-47" value="&lt;font face=&quot;宋体-简&quot; style=&quot;font-size: 10px;&quot;&gt;时间&lt;br&gt;修饰词&lt;br&gt;介词&lt;/font&gt;" style="endArrow=none;html=1;rounded=0;entryX=0.301;entryY=0.951;entryDx=0;entryDy=0;entryPerimeter=0;exitX=1;exitY=0;exitDx=0;exitDy=0;labelBackgroundColor=none;dashed=1;dashPattern=8 8;" parent="1" source="ASljsbczPLoBp7QqAxyb-37" target="ASljsbczPLoBp7QqAxyb-25" edge="1">
          <mxGeometry x="0.0037" y="-23" width="50" height="50" relative="1" as="geometry">
            <mxPoint x="303" y="359.1" as="sourcePoint" />
            <mxPoint x="353" y="309.1" as="targetPoint" />
            <mxPoint as="offset" />
          </mxGeometry>
        </mxCell>
        <mxCell id="ASljsbczPLoBp7QqAxyb-53" value="" style="ellipse;whiteSpace=wrap;html=1;aspect=fixed;fillColor=#f8cecc;strokeColor=#b85450;" parent="1" vertex="1">
          <mxGeometry x="389" y="356.20000000000005" width="28" height="28" as="geometry" />
        </mxCell>
        <mxCell id="ASljsbczPLoBp7QqAxyb-54" value="" style="ellipse;whiteSpace=wrap;html=1;aspect=fixed;fillColor=#1ba1e2;fontColor=#ffffff;strokeColor=#006EAF;" parent="1" vertex="1">
          <mxGeometry x="421" y="386.20000000000005" width="28" height="28" as="geometry" />
        </mxCell>
        <mxCell id="ASljsbczPLoBp7QqAxyb-55" value="" style="ellipse;whiteSpace=wrap;html=1;aspect=fixed;fillColor=#60a917;fontColor=#ffffff;strokeColor=#2D7600;" parent="1" vertex="1">
          <mxGeometry x="343" y="390.20000000000005" width="28" height="28" as="geometry" />
        </mxCell>
        <mxCell id="ASljsbczPLoBp7QqAxyb-56" value="" style="endArrow=none;html=1;rounded=0;exitX=1;exitY=0;exitDx=0;exitDy=0;entryX=0.262;entryY=0.93;entryDx=0;entryDy=0;entryPerimeter=0;" parent="1" source="ASljsbczPLoBp7QqAxyb-55" target="ASljsbczPLoBp7QqAxyb-53" edge="1">
          <mxGeometry width="50" height="50" relative="1" as="geometry">
            <mxPoint x="353" y="393.20000000000005" as="sourcePoint" />
            <mxPoint x="377" y="384.20000000000005" as="targetPoint" />
          </mxGeometry>
        </mxCell>
        <mxCell id="ASljsbczPLoBp7QqAxyb-57" value="&lt;font face=&quot;宋体-简&quot;&gt;操作符&lt;/font&gt;" style="edgeLabel;html=1;align=center;verticalAlign=middle;resizable=0;points=[];labelBackgroundColor=none;fontSize=10;" parent="ASljsbczPLoBp7QqAxyb-56" vertex="1" connectable="0">
          <mxGeometry x="-0.0863" relative="1" as="geometry">
            <mxPoint x="-15" y="-11" as="offset" />
          </mxGeometry>
        </mxCell>
        <mxCell id="ASljsbczPLoBp7QqAxyb-58" value="" style="endArrow=none;html=1;rounded=0;entryX=0;entryY=0;entryDx=0;entryDy=0;exitX=1;exitY=1;exitDx=0;exitDy=0;" parent="1" source="ASljsbczPLoBp7QqAxyb-53" target="ASljsbczPLoBp7QqAxyb-54" edge="1">
          <mxGeometry width="50" height="50" relative="1" as="geometry">
            <mxPoint x="379" y="418.20000000000005" as="sourcePoint" />
            <mxPoint x="389" y="393.20000000000005" as="targetPoint" />
          </mxGeometry>
        </mxCell>
        <mxCell id="ASljsbczPLoBp7QqAxyb-59" value="&lt;font face=&quot;宋体-简&quot;&gt;核心角色&lt;/font&gt;" style="edgeLabel;html=1;align=center;verticalAlign=middle;resizable=0;points=[];labelBackgroundColor=none;fontSize=8;" parent="ASljsbczPLoBp7QqAxyb-58" vertex="1" connectable="0">
          <mxGeometry x="-0.076" relative="1" as="geometry">
            <mxPoint x="12" y="-5" as="offset" />
          </mxGeometry>
        </mxCell>
        <mxCell id="ASljsbczPLoBp7QqAxyb-60" value="" style="ellipse;whiteSpace=wrap;html=1;aspect=fixed;fillColor=#fa6800;fontColor=#000000;strokeColor=#C73500;" parent="1" vertex="1">
          <mxGeometry x="358" y="433.20000000000005" width="28" height="28" as="geometry" />
        </mxCell>
        <mxCell id="ASljsbczPLoBp7QqAxyb-61" value="" style="endArrow=none;html=1;rounded=0;entryX=0.552;entryY=1.001;entryDx=0;entryDy=0;entryPerimeter=0;exitX=0.532;exitY=-0.029;exitDx=0;exitDy=0;exitPerimeter=0;" parent="1" source="ASljsbczPLoBp7QqAxyb-60" target="ASljsbczPLoBp7QqAxyb-53" edge="1">
          <mxGeometry width="50" height="50" relative="1" as="geometry">
            <mxPoint x="407" y="424.20000000000005" as="sourcePoint" />
            <mxPoint x="457" y="374.20000000000005" as="targetPoint" />
          </mxGeometry>
        </mxCell>
        <mxCell id="ASljsbczPLoBp7QqAxyb-62" value="&lt;font face=&quot;宋体-简&quot;&gt;核心角色&lt;/font&gt;" style="edgeLabel;html=1;align=center;verticalAlign=middle;resizable=0;points=[];labelBackgroundColor=#d5e8d4;fontSize=8;" parent="ASljsbczPLoBp7QqAxyb-61" vertex="1" connectable="0">
          <mxGeometry x="0.1382" relative="1" as="geometry">
            <mxPoint x="-3" y="7" as="offset" />
          </mxGeometry>
        </mxCell>
        <mxCell id="ASljsbczPLoBp7QqAxyb-63" value="" style="endArrow=none;html=1;rounded=0;entryX=0.301;entryY=0.951;entryDx=0;entryDy=0;entryPerimeter=0;exitX=1;exitY=0;exitDx=0;exitDy=0;labelBackgroundColor=none;dashed=1;dashPattern=8 8;" parent="1" source="ASljsbczPLoBp7QqAxyb-60" target="ASljsbczPLoBp7QqAxyb-54" edge="1">
          <mxGeometry x="0.0035" y="-23" width="50" height="50" relative="1" as="geometry">
            <mxPoint x="427" y="464.20000000000005" as="sourcePoint" />
            <mxPoint x="477" y="414.20000000000005" as="targetPoint" />
            <mxPoint as="offset" />
          </mxGeometry>
        </mxCell>
        <mxCell id="BfeE-0904GcRxi97lmfi-2" value="❌" style="edgeLabel;html=1;align=center;verticalAlign=middle;resizable=0;points=[];labelBackgroundColor=none;fontSize=16;" parent="ASljsbczPLoBp7QqAxyb-63" vertex="1" connectable="0">
          <mxGeometry x="0.2642" y="2" relative="1" as="geometry">
            <mxPoint x="-2" y="4" as="offset" />
          </mxGeometry>
        </mxCell>
        <mxCell id="ASljsbczPLoBp7QqAxyb-65" value="&lt;span style=&quot;font-size: 15px;&quot;&gt;&lt;b&gt;&lt;font face=&quot;宋体-简&quot;&gt;全局图关系增强&lt;/font&gt;&lt;/b&gt;&lt;/span&gt;" style="text;html=1;align=center;verticalAlign=middle;resizable=0;points=[];autosize=1;strokeColor=none;fillColor=none;" parent="1" vertex="1">
          <mxGeometry x="325.24" y="263.1" width="130" height="30" as="geometry" />
        </mxCell>
        <mxCell id="ASljsbczPLoBp7QqAxyb-69" value="" style="shape=crossbar;whiteSpace=wrap;html=1;rounded=1;" parent="1" vertex="1">
          <mxGeometry x="16" y="471" width="170" height="20" as="geometry" />
        </mxCell>
        <mxCell id="ASljsbczPLoBp7QqAxyb-84" value="" style="shape=crossbar;whiteSpace=wrap;html=1;rounded=1;" parent="1" vertex="1">
          <mxGeometry x="193" y="471" width="275" height="20" as="geometry" />
        </mxCell>
        <mxCell id="ASljsbczPLoBp7QqAxyb-89" value="&lt;span style=&quot;color: rgb(0, 0, 0); font-style: normal; font-variant-ligatures: normal; font-variant-caps: normal; font-weight: 400; letter-spacing: normal; orphans: 2; text-align: center; text-indent: 0px; text-transform: none; widows: 2; word-spacing: 0px; -webkit-text-stroke-width: 0px; background-color: rgb(255, 255, 255); text-decoration-thickness: initial; text-decoration-style: initial; text-decoration-color: initial; float: none; display: inline !important;&quot;&gt;&lt;font face=&quot;宋体-简&quot; style=&quot;font-size: 12px;&quot;&gt;AMR图显式关系增强模块&lt;/font&gt;&lt;/span&gt;" style="text;whiteSpace=wrap;html=1;" parent="1" vertex="1">
          <mxGeometry x="255" y="481" width="145" height="40" as="geometry" />
        </mxCell>
        <mxCell id="ASljsbczPLoBp7QqAxyb-90" value="&lt;div style=&quot;text-align: center;&quot;&gt;&lt;span style=&quot;background-color: rgb(255, 255, 255);&quot;&gt;&lt;font face=&quot;宋体-简&quot;&gt;局部-全局编码器模块&lt;/font&gt;&lt;/span&gt;&lt;/div&gt;" style="text;whiteSpace=wrap;html=1;" parent="1" vertex="1">
          <mxGeometry x="41" y="481" width="170" height="40" as="geometry" />
        </mxCell>
        <mxCell id="ASljsbczPLoBp7QqAxyb-91" value="" style="shape=crossbar;whiteSpace=wrap;html=1;rounded=1;" parent="1" vertex="1">
          <mxGeometry x="477" y="471" width="161" height="20" as="geometry" />
        </mxCell>
        <mxCell id="ASljsbczPLoBp7QqAxyb-92" value="&lt;span style=&quot;color: rgb(0, 0, 0); font-style: normal; font-variant-ligatures: normal; font-variant-caps: normal; font-weight: 400; letter-spacing: normal; orphans: 2; text-align: center; text-indent: 0px; text-transform: none; widows: 2; word-spacing: 0px; -webkit-text-stroke-width: 0px; background-color: rgb(255, 255, 255); text-decoration-thickness: initial; text-decoration-style: initial; text-decoration-color: initial; float: none; display: inline !important;&quot;&gt;&lt;font face=&quot;宋体-简&quot; style=&quot;font-size: 12px;&quot;&gt;注意力融合模块&lt;/font&gt;&lt;/span&gt;" style="text;whiteSpace=wrap;html=1;" parent="1" vertex="1">
          <mxGeometry x="510" y="481" width="115" height="40" as="geometry" />
        </mxCell>
        <mxCell id="SMVEQulNbsIjLR0KKEGX-9" value="" style="shape=crossbar;whiteSpace=wrap;html=1;rounded=1;" parent="1" vertex="1">
          <mxGeometry x="645" y="471" width="160" height="20" as="geometry" />
        </mxCell>
        <mxCell id="SMVEQulNbsIjLR0KKEGX-10" value="&lt;font face=&quot;宋体-简&quot;&gt;事件论元识别以及分类模块&lt;/font&gt;" style="text;whiteSpace=wrap;html=1;" parent="1" vertex="1">
          <mxGeometry x="650" y="481" width="153" height="40" as="geometry" />
        </mxCell>
        <mxCell id="pySy4FxODPDRkjT_Ep6V-1" value="&lt;font face=&quot;宋体-简&quot;&gt;局部编码器&lt;/font&gt;" style="shape=trapezoid;perimeter=trapezoidPerimeter;whiteSpace=wrap;html=1;fixedSize=1;rotation=-90;size=23.600000000000023;fillColor=#dae8fc;" vertex="1" parent="1">
          <mxGeometry x="123" y="139.08" width="101" height="25.8" as="geometry" />
        </mxCell>
        <mxCell id="pySy4FxODPDRkjT_Ep6V-2" value="&lt;font face=&quot;Times New Roman&quot;&gt;全局编码器&lt;/font&gt;" style="shape=trapezoid;perimeter=trapezoidPerimeter;whiteSpace=wrap;html=1;fixedSize=1;rotation=-90;size=23.600000000000023;fillColor=#ffe6cc;" vertex="1" parent="1">
          <mxGeometry x="125.5" y="332.93000000000006" width="96" height="25.8" as="geometry" />
        </mxCell>
        <mxCell id="pySy4FxODPDRkjT_Ep6V-3" value="" style="endArrow=classic;html=1;rounded=0;" edge="1" parent="1">
          <mxGeometry width="50" height="50" relative="1" as="geometry">
            <mxPoint x="188" y="151.08" as="sourcePoint" />
            <mxPoint x="208" y="151.08" as="targetPoint" />
          </mxGeometry>
        </mxCell>
        <mxCell id="pySy4FxODPDRkjT_Ep6V-4" value="" style="endArrow=classic;html=1;rounded=0;" edge="1" parent="1">
          <mxGeometry width="50" height="50" relative="1" as="geometry">
            <mxPoint x="188" y="172.08" as="sourcePoint" />
            <mxPoint x="208" y="172.08" as="targetPoint" />
          </mxGeometry>
        </mxCell>
        <mxCell id="pySy4FxODPDRkjT_Ep6V-5" value="" style="endArrow=classic;html=1;rounded=0;" edge="1" parent="1">
          <mxGeometry width="50" height="50" relative="1" as="geometry">
            <mxPoint x="188" y="132.08" as="sourcePoint" />
            <mxPoint x="208" y="132.08" as="targetPoint" />
          </mxGeometry>
        </mxCell>
        <mxCell id="pySy4FxODPDRkjT_Ep6V-6" value="" style="endArrow=classic;html=1;rounded=0;" edge="1" parent="1">
          <mxGeometry width="50" height="50" relative="1" as="geometry">
            <mxPoint x="188" y="346.08000000000004" as="sourcePoint" />
            <mxPoint x="208" y="346.08000000000004" as="targetPoint" />
          </mxGeometry>
        </mxCell>
        <mxCell id="pySy4FxODPDRkjT_Ep6V-7" value="" style="endArrow=classic;html=1;rounded=0;" edge="1" parent="1">
          <mxGeometry width="50" height="50" relative="1" as="geometry">
            <mxPoint x="188" y="367.08000000000004" as="sourcePoint" />
            <mxPoint x="208" y="367.08000000000004" as="targetPoint" />
          </mxGeometry>
        </mxCell>
        <mxCell id="pySy4FxODPDRkjT_Ep6V-8" value="" style="endArrow=classic;html=1;rounded=0;" edge="1" parent="1">
          <mxGeometry width="50" height="50" relative="1" as="geometry">
            <mxPoint x="188" y="327.08000000000004" as="sourcePoint" />
            <mxPoint x="208" y="327.08000000000004" as="targetPoint" />
          </mxGeometry>
        </mxCell>
      </root>
    </mxGraphModel>
  </diagram>
</mxfile>
